<svg width="32" height="32" viewBox="0 0 32 32" fill="none" xmlns="http://www.w3.org/2000/svg">
<path fill-rule="evenodd" clip-rule="evenodd" d="M17.3517 3.53872C19.3905 3.86073 21.2475 4.89984 22.5884 6.46907C23.9294 8.0383 24.6662 10.0346 24.6663 12.0987V19.9014C24.6663 22.1999 23.7532 24.4043 22.1279 26.0296C20.5026 27.655 18.2982 28.5681 15.9997 28.5681C13.7011 28.5681 11.4967 27.655 9.87142 26.0296C8.2461 24.4043 7.33301 22.1999 7.33301 19.9014V12.0987C7.33309 10.8463 7.60461 9.60879 8.12888 8.47138C8.65314 7.33398 9.4177 6.32371 10.3699 5.51016C11.3221 4.6966 12.4393 4.09908 13.6446 3.75874C14.8499 3.41841 16.1146 3.34335 17.3517 3.53872ZM14.9997 13.3334C14.9997 13.5986 15.105 13.853 15.2926 14.0405C15.4801 14.228 15.7345 14.3334 15.9997 14.3334C16.2649 14.3334 16.5192 14.228 16.7068 14.0405C16.8943 13.853 16.9997 13.5986 16.9997 13.3334V9.33339C16.9997 9.06817 16.8943 8.81382 16.7068 8.62628C16.5192 8.43875 16.2649 8.33339 15.9997 8.33339C15.7345 8.33339 15.4801 8.43875 15.2926 8.62628C15.105 8.81382 14.9997 9.06817 14.9997 9.33339V13.3334Z" fill="white"/>
</svg>
